<!DOCTYPE svg PUBLIC "-//W3C//DTD SVG 1.1//EN" "http://www.w3.org/Graphics/SVG/1.1/DTD/svg11.dtd">

<!-- Uploaded to: SVG Repo, www.svgrepo.com, Transformed by: SVG Repo Mixer Tools -->
<svg fill="#ffffff" height="30px" width="30px" version="1.1" id="Layer_1" xmlns="http://www.w3.org/2000/svg" xmlns:xlink="http://www.w3.org/1999/xlink" viewBox="0 0 512 512" xml:space="preserve" stroke="#ffffff">

<g id="SVGRepo_bgCarrier" stroke-width="0"/>

<g id="SVGRepo_tracerCarrier" stroke-linecap="round" stroke-linejoin="round"/>

<g id="SVGRepo_iconCarrier"> <g> <g> <path d="M163.576,305.929L14.515,159.36C9.122,154.052,0,157.875,0,165.444v276.608c0,7.322,8.619,11.247,14.14,6.434 L163.2,318.456C166.955,315.179,167.125,309.419,163.576,305.929z"/> </g> </g> <g> <g> <path d="M474.121,136.55h-81.587c-4.634,0-8.542,3.695-8.533,8.337c0.111,70.673-57.353,128.196-128,128.196 s-128.111-57.523-128-128.196c0.009-4.642-3.9-8.337-8.533-8.337H37.879c-7.629,0-11.426,9.25-5.99,14.609l218.121,215.04 c3.319,3.277,8.661,3.277,11.981,0l218.121-215.04C485.547,145.801,481.758,136.55,474.121,136.55z"/> </g> </g> <g> <g> <path d="M486.562,462.916L335.514,329.523c-3.345-2.953-8.397-2.833-11.597,0.282l-61.969,60.297 c-1.656,1.604-3.797,2.415-5.948,2.415s-4.292-0.811-5.948-2.415l-61.969-60.297c-3.2-3.115-8.252-3.234-11.597-0.282 L25.438,462.916c-5.888,5.205-2.21,14.933,5.649,14.933h449.826C488.772,477.85,492.45,468.122,486.562,462.916z"/> </g> </g> <g> <g> <path d="M497.485,159.351l-149.06,146.577c-3.541,3.482-3.371,9.25,0.375,12.518l149.06,130.031 c5.521,4.813,14.14,0.887,14.14-6.434V165.436C512,157.867,502.878,154.044,497.485,159.351z"/> </g> </g> <g> <g> <path d="M256,34.15c-61.269,0-110.933,49.664-110.933,110.933S194.731,256.017,256,256.017s110.933-49.664,110.933-110.933 S317.269,34.15,256,34.15z M317.722,109.696l-84.301,84.301c-1.664,1.664-4.369,1.664-6.033,0l-33.101-33.101 c-1.672-1.664-1.672-4.361,0-6.033l7.501-7.501c1.664-1.664,4.369-1.664,6.033,0l18.961,18.961c1.997,1.997,5.24,1.997,7.245,0 l70.161-70.161c1.664-1.664,4.369-1.664,6.033,0l7.501,7.501C319.386,105.327,319.386,108.032,317.722,109.696z"/> </g> </g> </g>

</svg>